<?xml version="1.0" encoding="UTF-8"?>
<svg id="Layer_1" xmlns="http://www.w3.org/2000/svg" version="1.1" viewBox="0 0 382.6 79.4" width="382.6px" height="79.4px">
  <!-- Generator: Adobe Illustrator 29.5.1, SVG Export Plug-In . SVG Version: 2.1.0 Build 141)  -->
  <defs>
    <style>
      .st0 {
        fill: #5b5b5b;
      }

      .st1 {
        fill: #f90096;
      }
    </style>
  </defs>
  <path class="st0" d="M104.7,62.3V17.8h8.9v44.5h-8.9Z"/>
  <path class="st0" d="M239.7,40.1c0,12.6-4.8,22.6-30,22.6h-1.3c-25.2,0-30-10-30-22.6s4.8-22.6,30-22.6h1.3c25.2,0,30,10,30,22.6ZM229.3,40.1c0-16.2-8.9-17.1-18-17.1h-4.6c-9,0-18,1-18,17.1s9,17.6,18,17.6h4.6c9.1,0,18-1.4,18-17.6Z"/>
  <path class="st0" d="M299.7,62.3c-3.8,0-3,0-5.6,0-4.4,0-9-2.6-14.5-8.8l-3-3.3h-24.2v12h-9.3V17.8h35.9c14.4,0,17.7,5.6,17.5,16.3-.2,5.7-1.6,12.8-10.5,15.3l13.6,12.9ZM288.2,34.3c0-6.9-1.2-10.9-9.7-10.9h-26v20.2h26c4.6,0,9.7-1.4,9.7-9.3Z"/>
  <path class="st0" d="M348.8,17.8l-22.8,28.6v15.9h-8.8v-15.6l-23.3-28.9h10.1l17.8,22.3,16.9-22.3h10.1Z"/>
  <g>
    <path class="st0" d="M36.5,62.4l19.7-32.7c6-9.9,9.9-12.2,25-12.2h17.4v44.9h-9V25.3c-16.7,0-20-1.9-28,11.1l-15.4,26h-9.8Z"/>
    <path class="st1" d="M78.5,53.1v9.3h-16.3l1.6-3c1.2-2,2.2-4,3.9-4.9,0,0,2-1.4,5.4-1.4h5.5Z"/>
  </g>
  <path class="st0" d="M181.9,17.7l-19.7,32.5c-6,9.9-9.9,12.2-25,12.2h-17.4V17.7h9v37.9c16.7,0,20.9.9,28-9.9l15.4-28h9.8Z"/>
  <path class="st0" d="M34.2,18.7v-.8h4.4v.8h-4.4ZM36,23.5v-5.2h.9v5.2h-.9ZM39.8,23.5v-5.6h.9v5.6h-.9ZM42.5,23.5l-2.5-5.6h.9l1.9,4.4,1.9-4.4h.9l-2.5,5.6h-.5ZM44.9,23.5v-5.6h.9v5.6h-.9Z"/>
</svg>